<svg width="32" height="32" viewBox="0 0 32 32" fill="none" xmlns="http://www.w3.org/2000/svg">
<path d="M8 23C4.1 23 1 19.9 1 16C1 12.1 4.1 9 8 9C11.9 9 15 12.1 15 16C15 19.9 11.9 23 8 23ZM8 10C4.7 10 2 12.7 2 16C2 19.3 4.7 22 8 22C11.3 22 14 19.3 14 16C14 12.7 11.3 10 8 10Z" fill="black"/>
<path d="M5.5 15C6.05228 15 6.5 14.5523 6.5 14C6.5 13.4477 6.05228 13 5.5 13C4.94772 13 4.5 13.4477 4.5 14C4.5 14.5523 4.94772 15 5.5 15Z" fill="black"/>
<path d="M10.5 15C11.0523 15 11.5 14.5523 11.5 14C11.5 13.4477 11.0523 13 10.5 13C9.94772 13 9.5 13.4477 9.5 14C9.5 14.5523 9.94772 15 10.5 15Z" fill="black"/>
<path d="M24 23C20.1 23 17 19.9 17 16C17 12.1 20.1 9 24 9C27.9 9 31 12.1 31 16C31 19.9 27.9 23 24 23ZM24 10C20.7 10 18 12.7 18 16C18 19.3 20.7 22 24 22C27.3 22 30 19.3 30 16C30 12.7 27.3 10 24 10Z" fill="black"/>
<path d="M21.5 15C22.0523 15 22.5 14.5523 22.5 14C22.5 13.4477 22.0523 13 21.5 13C20.9477 13 20.5 13.4477 20.5 14C20.5 14.5523 20.9477 15 21.5 15Z" fill="black"/>
<path d="M26.5 15C27.0523 15 27.5 14.5523 27.5 14C27.5 13.4477 27.0523 13 26.5 13C25.9477 13 25.5 13.4477 25.5 14C25.5 14.5523 25.9477 15 26.5 15Z" fill="black"/>
<path d="M26.8004 19C26.7004 19 26.5004 18.9 26.4004 18.8C25.8004 18.1 24.9004 17.6 24.0004 17.6C23.1004 17.6 22.2004 18 21.6004 18.8C21.4004 19 21.1004 19.1 20.9004 18.9C20.7004 18.7 20.6004 18.4 20.8004 18.2C21.6004 17.2 22.8004 16.7 24.0004 16.7C25.2004 16.7 26.4004 17.3 27.2004 18.2C27.4004 18.4 27.3004 18.7 27.1004 18.9C27.0004 19 26.9004 19 26.8004 19ZM8.00042 20C6.80042 20 5.60042 19.4 4.80042 18.5C4.60042 18.3 4.70042 18 4.90042 17.8C5.10042 17.6 5.40042 17.7 5.60042 17.9C6.20042 18.6 7.10042 19 8.00042 19C8.90042 19 9.80042 18.6 10.4004 17.8C10.6004 17.6 10.9004 17.6 11.1004 17.7C11.3004 17.9 11.4004 18.2 11.2004 18.4C10.4004 19.4 9.20042 20 8.00042 20Z" fill="black"/>
</svg>
