<svg width="24" height="25" viewBox="0 0 24 25" fill="none" xmlns="http://www.w3.org/2000/svg">
<path fill-rule="evenodd" clip-rule="evenodd" d="M5.5 7.9762V20.4762C5.5 20.874 5.65804 21.2556 5.93934 21.5369C6.22064 21.8182 6.60218 21.9762 7 21.9762H18C18.3978 21.9762 18.7794 21.8182 19.0607 21.5369C19.342 21.2556 19.5 20.874 19.5 20.4762V7.9762H5.5Z" stroke="black"/>
<path d="M8.5 10.8862V19.0662M12.5 10.8862V19.0662M16.5 10.8862V19.0662M9 4.8092V3.7202C9 3.0332 9.627 2.4762 10.4 2.4762H14.6C15.373 2.4762 16 3.0332 16 3.7202V4.8102" stroke="black" stroke-linecap="round"/>
<path d="M20 4.9762H5C4.17157 4.9762 3.5 5.64777 3.5 6.4762C3.5 7.30462 4.17157 7.9762 5 7.9762H20C20.8284 7.9762 21.5 7.30462 21.5 6.4762C21.5 5.64777 20.8284 4.9762 20 4.9762Z" stroke="black"/>
</svg>
