<svg width="25" height="26" viewBox="0 0 25 26" fill="none" xmlns="http://www.w3.org/2000/svg">
<path d="M16.5805 16.0723C16.4431 16.0248 16.3216 15.9399 16.2298 15.8271C16.1381 15.7143 16.0796 15.5782 16.0609 15.434C16.0396 15.295 16.0575 15.1528 16.1127 15.0234C16.1679 14.894 16.2582 14.7827 16.3734 14.702C17.6641 13.7778 18.75 11.0653 18.75 9.85119V7.73635C18.7687 6.08419 18.1493 4.48851 17.0208 3.28163C15.8924 2.07474 14.3419 1.34968 12.6922 1.25744C11.8554 1.2317 11.022 1.37433 10.2414 1.67688C9.46075 1.97942 8.74888 2.43571 8.148 3.01866C7.54712 3.60161 7.06949 4.29934 6.74345 5.07043C6.41741 5.84152 6.2496 6.67025 6.25 7.50744V9.85119C6.25 11.0653 7.33594 13.7778 8.62344 14.702C8.7387 14.7826 8.82906 14.894 8.88429 15.0233C8.93952 15.1527 8.95741 15.295 8.93594 15.434C8.91731 15.5782 8.85882 15.7143 8.76703 15.8271C8.67525 15.9399 8.55382 16.0248 8.41641 16.0723C5.14062 17.2653 0.78125 19.3754 0.78125 23.9137C0.78125 24.1209 0.86356 24.3196 1.01007 24.4661C1.15659 24.6126 1.3553 24.6949 1.5625 24.6949H23.4375C23.6447 24.6949 23.8434 24.6126 23.9899 24.4661C24.1364 24.3196 24.2188 24.1209 24.2188 23.9137C24.2188 19.3754 19.8594 17.2653 16.5805 16.0723ZM2.40234 23.1324C2.76562 20.7887 4.82422 19.041 8.95312 17.541C9.35706 17.3952 9.71341 17.1417 9.9836 16.8079C10.2538 16.4741 10.4275 16.0727 10.4859 15.6473C10.5441 15.2262 10.4858 14.7973 10.3175 14.407C10.1492 14.0167 9.87733 13.68 9.53125 13.4332C8.67656 12.8199 7.8125 10.5887 7.8125 9.85119V7.50744C7.8122 6.87945 7.93809 6.2578 8.18269 5.6794C8.42729 5.10101 8.78563 4.57765 9.23641 4.14043C9.68719 3.7032 10.2212 3.36101 10.8068 3.13417C11.3924 2.90733 12.0176 2.80047 12.6453 2.81994C13.8896 2.89738 15.0562 3.45164 15.9022 4.36737C16.7483 5.2831 17.2086 6.48979 17.1875 7.73635V9.85119C17.1875 10.5887 16.3234 12.8199 15.4687 13.4324C15.1232 13.6795 14.8518 14.0164 14.6839 14.4067C14.516 14.797 14.4581 15.2257 14.5164 15.6465C14.5748 16.072 14.7486 16.4733 15.0187 16.8071C15.2889 17.1409 15.6453 17.3944 16.0492 17.5403C20.1719 19.041 22.2344 20.7887 22.5977 23.1324H2.40234Z" fill="black"/>
</svg>
