<svg width="42" height="25" viewBox="0 0 42 25" fill="none" xmlns="http://www.w3.org/2000/svg">
<path d="M17.8525 15.5394C17.7059 15.4928 17.5764 15.4094 17.4785 15.2988C17.3806 15.1881 17.3182 15.0546 17.2983 14.9131C17.2755 14.7767 17.2947 14.6371 17.3536 14.5102C17.4125 14.3832 17.5088 14.274 17.6317 14.1948C19.0083 13.288 20.1667 10.6264 20.1667 9.43517V7.36006C20.1866 5.73895 19.5259 4.17326 18.3222 2.98905C17.1186 1.80484 15.4647 1.0934 13.705 1.0029C12.8124 0.97764 11.9234 1.11759 11.0908 1.41445C10.2581 1.71132 9.4988 2.15903 8.85787 2.73103C8.21693 3.30302 7.70746 3.98764 7.35968 4.74424C7.0119 5.50084 6.83291 6.314 6.83333 7.13546V9.43517C6.83333 10.6264 7.99167 13.288 9.365 14.1948C9.48794 14.2739 9.58433 14.3832 9.64325 14.5101C9.70216 14.6371 9.72124 14.7767 9.69833 14.9131C9.67846 15.0546 9.61607 15.1881 9.51817 15.2988C9.42027 15.4094 9.29074 15.4928 9.14417 15.5394C5.65 16.7099 1 18.7804 1 23.2334C1 23.4367 1.0878 23.6317 1.24408 23.7755C1.40036 23.9192 1.61232 24 1.83333 24H25.1667C25.3877 24 25.5996 23.9192 25.7559 23.7755C25.9122 23.6317 26 23.4367 26 23.2334C26 18.7804 21.35 16.7099 17.8525 15.5394ZM2.72917 22.4669C3.11667 20.1672 5.3125 18.4523 9.71667 16.9805C10.1475 16.8375 10.5276 16.5887 10.8158 16.2612C11.104 15.9336 11.2893 15.5398 11.3517 15.1224C11.4137 14.7092 11.3516 14.2884 11.172 13.9054C10.9925 13.5225 10.7025 13.192 10.3333 12.9499C9.42167 12.3481 8.5 10.1588 8.5 9.43517V7.13546C8.49968 6.51927 8.63396 5.9093 8.89487 5.34177C9.15578 4.77424 9.538 4.26073 10.0188 3.83171C10.4997 3.4027 11.0693 3.06694 11.6939 2.84436C12.3186 2.62179 12.9855 2.51694 13.655 2.53604C14.9823 2.61203 16.2266 3.15586 17.129 4.05439C18.0315 4.95292 18.5225 6.13694 18.5 7.36006V9.43517C18.5 10.1588 17.5783 12.3481 16.6667 12.9491C16.298 13.1916 16.0085 13.5222 15.8295 13.9051C15.6504 14.288 15.5886 14.7087 15.6508 15.1216C15.7132 15.539 15.8985 15.9329 16.1867 16.2604C16.4749 16.5879 16.855 16.8367 17.2858 16.9798C21.6833 18.4523 23.8833 20.1672 24.2708 22.4669H2.72917Z" fill="black"/>
<path d="M31.5043 16.2751C31.3695 16.2325 31.2503 16.1564 31.1602 16.0554C31.0701 15.9544 31.0127 15.8324 30.9945 15.7032C30.9735 15.5787 30.9911 15.4513 31.0453 15.3354C31.0995 15.2195 31.1881 15.1197 31.3011 15.0474C32.5677 14.2194 33.6333 11.7893 33.6333 10.7017V8.80702C33.6517 7.32687 33.0438 5.89732 31.9365 4.81609C30.8291 3.73485 29.3075 3.08528 27.6886 3.00265C26.8674 2.97958 26.0496 3.10737 25.2835 3.37842C24.5175 3.64946 23.8189 4.05825 23.2292 4.5805C22.6396 5.10276 22.1709 5.72785 21.8509 6.41866C21.5309 7.10946 21.3663 7.85192 21.3667 8.60194V10.7017C21.3667 11.7893 22.4323 14.2194 23.6958 15.0474C23.8089 15.1197 23.8976 15.2194 23.9518 15.3353C24.006 15.4512 24.0235 15.5787 24.0025 15.7032C23.9842 15.8324 23.9268 15.9544 23.8367 16.0554C23.7466 16.1564 23.6275 16.2325 23.4926 16.2751C20.278 17.3438 16 19.2343 16 23.3001C16 23.4857 16.0808 23.6637 16.2246 23.795C16.3683 23.9263 16.5633 24 16.7667 24H38.2333C38.4367 24 38.6317 23.9263 38.7754 23.795C38.9192 23.6637 39 23.4857 39 23.3001C39 19.2343 34.722 17.3438 31.5043 16.2751ZM17.5908 22.6002C17.9473 20.5004 19.9675 18.9347 24.0193 17.5909C24.4157 17.4603 24.7654 17.2331 25.0306 16.9341C25.2957 16.635 25.4662 16.2755 25.5235 15.8943C25.5806 15.5171 25.5234 15.1329 25.3583 14.7832C25.1931 14.4335 24.9263 14.1318 24.5867 13.9108C23.7479 13.3613 22.9 11.3624 22.9 10.7017V8.60194C22.8997 8.03933 23.0232 7.4824 23.2633 6.96422C23.5033 6.44605 23.855 5.97718 24.2973 5.58548C24.7397 5.19377 25.2638 4.8872 25.8384 4.68398C26.4131 4.48076 27.0266 4.38503 27.6426 4.40247C28.8637 4.47185 30.0085 4.9684 30.8387 5.78879C31.6689 6.60919 32.1207 7.69025 32.1 8.80702V10.7017C32.1 11.3624 31.2521 13.3613 30.4133 13.9101C30.0742 14.1314 29.8079 14.4333 29.6431 14.7829C29.4784 15.1325 29.4216 15.5166 29.4788 15.8936C29.5361 16.2748 29.7066 16.6343 29.9717 16.9334C30.2369 17.2324 30.5866 17.4596 30.983 17.5902C35.0287 18.9347 37.0527 20.5004 37.4092 22.6002H17.5908Z" fill="black"/>
</svg>
